<svg xmlns="http://www.w3.org/2000/svg" viewBox="0 0 512 512" role="img" aria-label="WM Liga Icon">
  <defs>
    <linearGradient id="bg" x1="0" y1="0" x2="1" y2="1">
      <stop offset="0" stop-color="#05091a"/>
      <stop offset="0.55" stop-color="#0c1525"/>
      <stop offset="1" stop-color="#111827"/>
    </linearGradient>
    <linearGradient id="gold" x1="0" y1="0" x2="1" y2="1">
      <stop offset="0" stop-color="#fbbf24"/>
      <stop offset="1" stop-color="#f59e0b"/>
    </linearGradient>
  </defs>
  <rect width="512" height="512" rx="112" fill="url(#bg)"/>
  <circle cx="256" cy="214" r="104" fill="#f8fafc"/>
  <path d="M256 124l54 39-20 64h-68l-20-64 54-39z" fill="#0f172a"/>
  <path d="M165 198l57 29-5 64-60 22-33-51 41-64zM347 198l41 64-33 51-60-22-5-64 57-29zM217 291h78l31 55-70 48-70-48 31-55z" fill="#0f172a"/>
  <rect x="112" y="346" width="288" height="54" rx="27" fill="url(#gold)"/>
  <text x="256" y="383" text-anchor="middle" font-family="Arial, Helvetica, sans-serif" font-size="32" font-weight="900" fill="#111827">WM LIGA</text>
</svg>
